<svg width="24" height="24" viewBox="0 0 24 24" fill="none" xmlns="http://www.w3.org/2000/svg">
<path d="M22.5 1L20 3L17.4658 15.6857C17.4038 16.0945 17.1962 16.4671 16.8812 16.7349C16.5662 17.0026 16.165 17.1475 15.7516 17.1429H4.95155C4.57773 17.1624 4.20779 17.059 3.89824 16.8485C3.58869 16.638 3.35655 16.332 3.23727 15.9771L0.957268 9.12C0.872119 8.86222 0.849476 8.58789 0.891205 8.31963C0.932934 8.05138 1.03784 7.79689 1.19727 7.57715C1.36322 7.34345 1.58513 7.1551 1.84268 7.02932C2.10023 6.90354 2.38521 6.84434 2.67155 6.85715H18.3573" fill="#E66767"/>
<path d="M22.5 1L20 3L17.4658 15.6857C17.4038 16.0945 17.1962 16.4671 16.8812 16.7349C16.5662 17.0026 16.165 17.1475 15.7516 17.1429H4.95155C4.57773 17.1624 4.20779 17.059 3.89824 16.8485C3.58869 16.638 3.35655 16.332 3.23727 15.9771L0.957268 9.12C0.872119 8.86222 0.849476 8.58789 0.891205 8.31963C0.932934 8.05138 1.03784 7.79689 1.19727 7.57715C1.36322 7.34345 1.58513 7.1551 1.84268 7.02932C2.10023 6.90354 2.38521 6.84434 2.67155 6.85715H18.3573" stroke="#E66767" stroke-width="1.71429" stroke-linecap="round" stroke-linejoin="round"/>
<path d="M5.24299 23.1429C5.47031 23.1429 5.68833 23.0526 5.84908 22.8918C6.00982 22.7311 6.10013 22.513 6.10013 22.2857C6.10013 22.0584 6.00982 21.8404 5.84908 21.6796C5.68833 21.5189 5.47031 21.4286 5.24299 21.4286C5.01566 21.4286 4.79764 21.5189 4.63689 21.6796C4.47615 21.8404 4.38584 22.0584 4.38584 22.2857C4.38584 22.513 4.47615 22.7311 4.63689 22.8918C4.79764 23.0526 5.01566 23.1429 5.24299 23.1429Z" fill="#E66767" stroke="#E66767" stroke-width="1.71429" stroke-linecap="round" stroke-linejoin="round"/>
<path d="M16.3858 23.1429C16.6132 23.1429 16.8312 23.0526 16.9919 22.8918C17.1527 22.7311 17.243 22.513 17.243 22.2857C17.243 22.0584 17.1527 21.8404 16.9919 21.6796C16.8312 21.5189 16.6132 21.4286 16.3858 21.4286C16.1585 21.4286 15.9405 21.5189 15.7797 21.6796C15.619 21.8404 15.5287 22.0584 15.5287 22.2857C15.5287 22.513 15.619 22.7311 15.7797 22.8918C15.9405 23.0526 16.1585 23.1429 16.3858 23.1429Z" fill="#E66767" stroke="#E66767" stroke-width="1.71429" stroke-linecap="round" stroke-linejoin="round"/>
</svg>
